<?xml version="1.0" encoding="UTF-8" standalone="no"?>
<svg width="800" height="600" xmlns="http://www.w3.org/2000/svg">
  <!-- 배경 -->
  <rect width="800" height="600" fill="#f8f9fa" />
  
  <!-- 제목 -->
  <text x="400" y="40" font-family="Arial" font-size="24" font-weight="bold" text-anchor="middle" fill="#333">Diamond 패턴 스토리지 확장 과정</text>
  
  <!-- 스토리지 키 -->
  <rect x="100" y="100" width="600" height="80" rx="10" fill="#4e73df" />
  <text x="400" y="145" font-family="Arial" font-size="20" font-weight="bold" text-anchor="middle" fill="white">스토리지 키: keccak256("diamond.counter.storage")</text>
  <text x="400" y="170" font-family="Arial" font-size="16" text-anchor="middle" fill="white">모든 버전에서 동일한 스토리지 위치 사용</text>
  
  <!-- V1 Storage 구조 -->
  <rect x="100" y="220" width="250" height="150" rx="8" fill="#36b9cc" />
  <text x="225" y="250" font-family="Arial" font-size="18" font-weight="bold" text-anchor="middle" fill="white">LibCounter.sol (V1)</text>
  
  <rect x="120" y="280" width="210" height="70" rx="5" fill="white" />
  <text x="225" y="310" font-family="Arial" font-size="16" text-anchor="middle" fill="#333">struct CounterStorage {</text>
  <text x="225" y="330" font-family="Arial" font-size="16" text-anchor="middle" fill="#333">  uint256 count;</text>
  <text x="225" y="350" font-family="Arial" font-size="16" text-anchor="middle" fill="#333">}</text>
  
  <!-- V2 Storage 구조 -->
  <rect x="450" y="220" width="250" height="300" rx="8" fill="#1cc88a" />
  <text x="575" y="250" font-family="Arial" font-size="18" font-weight="bold" text-anchor="middle" fill="white">LibCounterV2.sol (V3)</text>
  
  <rect x="470" y="280" width="210" height="220" rx="5" fill="white" />
  <text x="575" y="310" font-family="Arial" font-size="16" text-anchor="middle" fill="#333">struct CounterStorage {</text>
  <text x="575" y="330" font-family="Arial" font-size="16" text-anchor="middle" fill="#333">  uint256 count;</text>
  <rect x="470" y="340" width="210" height="140" rx="0" fill="#f6c23e" opacity="0.3" />
  <text x="575" y="360" font-family="Arial" font-size="16" text-anchor="middle" fill="#333">  uint256 lastIncremented;</text>
  <text x="575" y="380" font-family="Arial" font-size="16" text-anchor="middle" fill="#333">  uint256 lastDecremented;</text>
  <text x="575" y="400" font-family="Arial" font-size="16" text-anchor="middle" fill="#333">  uint256 totalIncrements;</text>
  <text x="575" y="420" font-family="Arial" font-size="16" text-anchor="middle" fill="#333">  uint256 totalDecrements;</text>
  <text x="575" y="440" font-family="Arial" font-size="16" text-anchor="middle" fill="#333">  address lastModifier;</text>
  <text x="575" y="460" font-family="Arial" font-size="16" text-anchor="middle" fill="#333">}</text>
  
  <!-- 화살표 -->
  <line x1="350" y1="300" x2="450" y2="300" stroke="#333" stroke-width="2" />
  <polygon points="450,300 440,295 440,305" fill="#333" />
  <text x="400" y="280" font-family="Arial" font-size="16" fill="#333">확장</text>
  
  <!-- 마이그레이션 과정 -->
  <rect x="150" y="450" width="500" height="120" rx="8" fill="#f8f9fa" stroke="#333" stroke-width="2" />
  <text x="400" y="480" font-family="Arial" font-size="18" font-weight="bold" text-anchor="middle" fill="#333">스토리지 마이그레이션 과정</text>
  <text x="400" y="515" font-family="Arial" font-size="16" text-anchor="middle" fill="#333">1. 이전 스토리지 값(count) 보존</text>
  <text x="400" y="545" font-family="Arial" font-size="16" text-anchor="middle" fill="#333">2. 새 필드 초기화 (initializeV3 함수)</text>
</svg> 